<svg xlink="http://www.w3.org/1999/xlink" viewBox="0 0 5000 5000" xmlns="http://www.w3.org/2000/svg" style="transform: scale(1);"><defs><filter id="goo"><feGaussianBlur in="SourceGraphic" stdDeviation="0" result="blur"></feGaussianBlur><feColorMatrix in="blur" type="matrix" values="1 0 0 0 0 0 1 0 0 0 0 0 1 0 0 0 0 0 19 -9" result="good"></feColorMatrix><feComposite in="SourceGraphic" in2="goo" operator="atop"></feComposite></filter><path d="M257,212Q284,203 285,233C271,255 263,268 250,289L216,231C238,233 246,230 257,212z" id="P0"></path><path d="M254,262L239,256L252,237L263,252L254,262z" id="P1"></path><path d="M240,279Q208,270 223,235L260,221C260,237 264,242 280,244C265,258 256,266 240,279z" id="P2"></path><path d="M237,261L233,248L255,234L264,260L237,261z" id="P3"></path><path d="M235,274C241,261 240,260 227,266Q209,240 238,225C258,236 266,248 269,270L235,274z" id="P4"></path><path d="M244,264L239,240L255,236L255,264L244,264z" id="P5"></path><path d="M232,218Q243,195 259,214C273,218 283,229 287,245C266,263 251,271 226,279C211,260 212,235 232,218z" id="P6"></path><path d="M262,266L232,260L251,230L257,231L262,266z" id="P7"></path><path d="M221,256Q228,211 269,227Q294,239 278,261C263,258 261,261 266,275Q233,292 221,256z" id="P8"></path><path d="M238,261L236,241L249,234L266,249L238,261z" id="P9"></path></defs><rect id="RECT" width="5000" height="5000" fill="#111"></rect><g id="group" fill="#FFF" filter=""><use x="-11" y="-105" href="#P8"></use><use x="-155" y="189" href="#P8"></use><use x="-125" y="488" href="#P1"></use><use x="-142" y="921" href="#P1"></use><use x="-75" y="1301" href="#P1"></use><use x="-187" y="1655" href="#P3"></use><use x="-200" y="2091" href="#P5"></use><use x="-121" y="2254" href="#P9"></use><use x="30" y="2932" href="#P0"></use><use x="77" y="3095" href="#P3"></use><use x="-98" y="3527" href="#P7"></use><use x="-126" y="3859" href="#P1"></use><use x="-46" y="4246" href="#P9"></use><use x="-65" y="4559" href="#P8"></use><use x="-197" y="5077" href="#P2"></use><use x="-28" y="5178" href="#P2"></use><use x="272" y="0" href="#P3"></use><use x="435" y="293" href="#P5"></use><use x="237" y="636" href="#P2"></use><use x="354" y="994" href="#P2"></use><use x="192" y="1263" href="#P5"></use><use x="371" y="1834" href="#P0"></use><use x="165" y="2207" href="#P6"></use><use x="125" y="2516" href="#P4"></use><use x="287" y="2884" href="#P4"></use><use x="372" y="2987" href="#P6"></use><use x="367" y="3471" href="#P2"></use><use x="463" y="3974" href="#P5"></use><use x="368" y="4272" href="#P0"></use><use x="465" y="4534" href="#P2"></use><use x="326" y="5056" href="#P8"></use><use x="344" y="5083" href="#P8"></use><use x="617" y="-244" href="#P8"></use><use x="498" y="141" href="#P9"></use><use x="572" y="767" href="#P2"></use><use x="698" y="999" href="#P2"></use><use x="683" y="1322" href="#P3"></use><use x="617" y="1860" href="#P0"></use><use x="518" y="1940" href="#P8"></use><use x="596" y="2573" href="#P8"></use><use x="806" y="2694" href="#P8"></use><use x="588" y="3222" href="#P6"></use><use x="745" y="3386" href="#P0"></use><use x="491" y="3718" href="#P1"></use><use x="785" y="4168" href="#P3"></use><use x="813" y="4620" href="#P8"></use><use x="506" y="4817" href="#P5"></use><use x="831" y="5431" href="#P3"></use><use x="893" y="-61" href="#P8"></use><use x="946" y="173" href="#P0"></use><use x="1102" y="544" href="#P9"></use><use x="1064" y="1131" href="#P0"></use><use x="1183" y="1307" href="#P3"></use><use x="872" y="1569" href="#P8"></use><use x="1012" y="1924" href="#P2"></use><use x="927" y="2475" href="#P3"></use><use x="1191" y="2767" href="#P1"></use><use x="1118" y="3063" href="#P0"></use><use x="1138" y="3590" href="#P9"></use><use x="885" y="3981" href="#P9"></use><use x="1046" y="4167" href="#P8"></use><use x="860" y="4567" href="#P1"></use><use x="1148" y="4762" href="#P4"></use><use x="922" y="5275" href="#P4"></use><use x="1445" y="-248" href="#P7"></use><use x="1394" y="133" href="#P5"></use><use x="1364" y="592" href="#P6"></use><use x="1226" y="828" href="#P5"></use><use x="1486" y="1237" href="#P9"></use><use x="1429" y="1561" href="#P2"></use><use x="1249" y="2188" href="#P0"></use><use x="1343" y="2589" href="#P2"></use><use x="1223" y="2770" href="#P8"></use><use x="1334" y="3151" href="#P1"></use><use x="1303" y="3314" href="#P0"></use><use x="1368" y="3945" href="#P4"></use><use x="1350" y="4226" href="#P3"></use><use x="1566" y="4377" href="#P1"></use><use x="1407" y="5027" href="#P4"></use><use x="1246" y="5131" href="#P8"></use><use x="1679" y="-74" href="#P6"></use><use x="1675" y="298" href="#P1"></use><use x="1716" y="697" href="#P4"></use><use x="1946" y="839" href="#P5"></use><use x="1860" y="1413" href="#P4"></use><use x="1810" y="1647" href="#P9"></use><use x="1946" y="2237" href="#P8"></use><use x="1840" y="2577" href="#P9"></use><use x="1650" y="2833" href="#P6"></use><use x="1736" y="3059" href="#P7"></use><use x="1721" y="3577" href="#P2"></use><use x="1760" y="3667" href="#P9"></use><use x="1715" y="4217" href="#P2"></use><use x="1804" y="4431" href="#P7"></use><use x="1775" y="4814" href="#P3"></use><use x="1765" y="5292" href="#P9"></use><use x="2173" y="60" href="#P6"></use><use x="1983" y="278" href="#P4"></use><use x="2176" y="770" href="#P7"></use><use x="1980" y="1028" href="#P8"></use><use x="2188" y="1411" href="#P1"></use><use x="2316" y="1632" href="#P9"></use><use x="2075" y="2191" href="#P5"></use><use x="1992" y="2549" href="#P8"></use><use x="1995" y="2816" href="#P0"></use><use x="2283" y="3303" href="#P6"></use><use x="2203" y="3398" href="#P9"></use><use x="1963" y="3952" href="#P0"></use><use x="2096" y="4036" href="#P7"></use><use x="1988" y="4471" href="#P2"></use><use x="2163" y="4765" href="#P5"></use><use x="2113" y="5106" href="#P4"></use><use x="2575" y="-62" href="#P5"></use><use x="2336" y="239" href="#P9"></use><use x="2588" y="499" href="#P5"></use><use x="2440" y="995" href="#P1"></use><use x="2572" y="1297" href="#P5"></use><use x="2634" y="1568" href="#P3"></use><use x="2511" y="2050" href="#P0"></use><use x="2419" y="2462" href="#P1"></use><use x="2571" y="2691" href="#P4"></use><use x="2443" y="3145" href="#P0"></use><use x="2320" y="3500" href="#P4"></use><use x="2378" y="4002" href="#P5"></use><use x="2644" y="4236" href="#P6"></use><use x="2347" y="4617" href="#P0"></use><use x="2680" y="4983" href="#P9"></use><use x="2552" y="5367" href="#P9"></use><use x="2734" y="-167" href="#P5"></use><use x="2763" y="458" href="#P9"></use><use x="2805" y="514" href="#P5"></use><use x="2776" y="866" href="#P8"></use><use x="2926" y="1452" href="#P6"></use><use x="2951" y="1818" href="#P7"></use><use x="2785" y="2201" href="#P1"></use><use x="2724" y="2582" href="#P8"></use><use x="3034" y="2922" href="#P5"></use><use x="2806" y="3029" href="#P7"></use><use x="2710" y="3633" href="#P6"></use><use x="2748" y="3832" href="#P2"></use><use x="2871" y="4224" href="#P1"></use><use x="2928" y="4582" href="#P4"></use><use x="2889" y="4842" href="#P9"></use><use x="2704" y="5081" href="#P1"></use><use x="3063" y="60" href="#P7"></use><use x="3223" y="234" href="#P8"></use><use x="3393" y="599" href="#P4"></use><use x="3108" y="995" href="#P1"></use><use x="3274" y="1483" href="#P8"></use><use x="3191" y="1696" href="#P6"></use><use x="3214" y="2154" href="#P3"></use><use x="3071" y="2531" href="#P6"></use><use x="3213" y="2906" href="#P5"></use><use x="3278" y="3217" href="#P0"></use><use x="3247" y="3468" href="#P1"></use><use x="3119" y="3706" href="#P2"></use><use x="3392" y="4351" href="#P3"></use><use x="3206" y="4405" href="#P0"></use><use x="3218" y="4938" href="#P5"></use><use x="3167" y="5328" href="#P4"></use><use x="3464" y="24" href="#P5"></use><use x="3669" y="194" href="#P4"></use><use x="3440" y="607" href="#P2"></use><use x="3606" y="1082" href="#P9"></use><use x="3699" y="1344" href="#P8"></use><use x="3498" y="1751" href="#P1"></use><use x="3594" y="1884" href="#P0"></use><use x="3655" y="2246" href="#P6"></use><use x="3731" y="2823" href="#P8"></use><use x="3722" y="3193" href="#P7"></use><use x="3769" y="3375" href="#P6"></use><use x="3483" y="3837" href="#P7"></use><use x="3569" y="4118" href="#P5"></use><use x="3740" y="4498" href="#P5"></use><use x="3591" y="4908" href="#P9"></use><use x="3713" y="5324" href="#P4"></use><use x="3973" y="89" href="#P3"></use><use x="3875" y="341" href="#P3"></use><use x="3880" y="766" href="#P3"></use><use x="4040" y="1013" href="#P0"></use><use x="4057" y="1188" href="#P5"></use><use x="3890" y="1687" href="#P7"></use><use x="3987" y="2139" href="#P9"></use><use x="4097" y="2418" href="#P4"></use><use x="4002" y="2822" href="#P6"></use><use x="3816" y="3048" href="#P7"></use><use x="4077" y="3578" href="#P9"></use><use x="3903" y="3903" href="#P8"></use><use x="4120" y="4232" href="#P5"></use><use x="3998" y="4633" href="#P6"></use><use x="3882" y="5025" href="#P4"></use><use x="4011" y="5411" href="#P5"></use><use x="4178" y="-111" href="#P4"></use><use x="4375" y="409" href="#P9"></use><use x="4509" y="775" href="#P3"></use><use x="4483" y="889" href="#P1"></use><use x="4298" y="1303" href="#P3"></use><use x="4186" y="1772" href="#P7"></use><use x="4330" y="2199" href="#P0"></use><use x="4230" y="2563" href="#P4"></use><use x="4348" y="2876" href="#P2"></use><use x="4321" y="3302" href="#P6"></use><use x="4401" y="3645" href="#P4"></use><use x="4431" y="3932" href="#P1"></use><use x="4194" y="4257" href="#P5"></use><use x="4377" y="4587" href="#P9"></use><use x="4341" y="4926" href="#P3"></use><use x="4453" y="5395" href="#P1"></use><use x="4523" y="-225" href="#P1"></use><use x="4746" y="119" href="#P1"></use><use x="4594" y="523" href="#P4"></use><use x="4595" y="994" href="#P7"></use><use x="4726" y="1185" href="#P8"></use><use x="4618" y="1797" href="#P6"></use><use x="4878" y="2058" href="#P6"></use><use x="4814" y="2369" href="#P2"></use><use x="4753" y="2745" href="#P7"></use><use x="4670" y="3292" href="#P3"></use><use x="4640" y="3572" href="#P4"></use><use x="4764" y="3785" href="#P8"></use><use x="4666" y="4138" href="#P4"></use><use x="4721" y="4641" href="#P8"></use><use x="4723" y="4774" href="#P5"></use><use x="4726" y="5317" href="#P7"></use><use x="5142" y="-188" href="#P8"></use><use x="4959" y="223" href="#P2"></use><use x="4947" y="564" href="#P4"></use><use x="5128" y="878" href="#P8"></use><use x="5157" y="1364" href="#P1"></use><use x="5005" y="1528" href="#P4"></use><use x="4999" y="2153" href="#P6"></use><use x="5149" y="2464" href="#P6"></use><use x="4900" y="2665" href="#P6"></use><use x="5145" y="2985" href="#P4"></use><use x="5065" y="3462" href="#P7"></use><use x="5062" y="3694" href="#P1"></use><use x="5111" y="4356" href="#P0"></use><use x="5146" y="4376" href="#P3"></use><use x="4884" y="4987" href="#P8"></use><use x="4929" y="5309" href="#P3"></use></g></svg>